<svg id="visual" viewBox="0 0 900 600" width="100%" height="100%" xmlns="http://www.w3.org/2000/svg" xmlns:xlink="http://www.w3.org/1999/xlink" version="1.1"><rect width="900" height="600" fill="#21282D"></rect><g><g transform="translate(498 454)"><path d="M49 -17.3C56 5.7 49 31.8 32.5 43.5C16 55.2 -10.1 52.5 -29.7 38.8C-49.2 25.1 -62.2 0.3 -56.2 -21.3C-50.1 -43 -25.1 -61.5 -2 -60.8C21 -60.2 42 -40.3 49 -17.3Z" stroke="#f45d5d" fill="none" stroke-width="20"></path></g><g transform="translate(180 92)"><path d="M50.1 -16.9C57 5.1 49.4 31.2 31.8 44.1C14.2 56.9 -13.3 56.5 -30.9 43.5C-48.5 30.4 -56.3 4.8 -49.5 -17C-42.7 -38.7 -21.3 -56.7 0.1 -56.7C21.6 -56.7 43.2 -38.9 50.1 -16.9Z" stroke="#f45d5d" fill="none" stroke-width="20"></path></g><g transform="translate(66 399)"><path d="M51.5 -17.4C57.7 2.4 47.5 26.8 29.6 39.6C11.7 52.3 -13.9 53.3 -31 41.2C-48.1 29.2 -56.7 4 -50.1 -16.3C-43.5 -36.5 -21.8 -51.8 0.4 -52C22.7 -52.1 45.3 -37.1 51.5 -17.4Z" stroke="#f45d5d" fill="none" stroke-width="20"></path></g><g transform="translate(833 242)"><path d="M49.3 -17.8C55 1.6 44.7 24.4 27.6 36.4C10.6 48.4 -13.1 49.5 -27.8 38.8C-42.5 28 -48.1 5.2 -42 -14.8C-35.9 -34.8 -17.9 -52 1.9 -52.7C21.8 -53.3 43.6 -37.3 49.3 -17.8Z" stroke="#f45d5d" fill="none" stroke-width="20"></path></g><g transform="translate(601 275)"><path d="M53.1 -18.5C59.8 3.4 50 29.4 31.4 42.8C12.8 56.3 -14.7 57.1 -33.5 44C-52.4 30.8 -62.7 3.5 -55.6 -18.8C-48.6 -41.2 -24.3 -58.6 -0.6 -58.4C23.2 -58.2 46.3 -40.4 53.1 -18.5Z" stroke="#f45d5d" fill="none" stroke-width="20"></path></g><g transform="translate(549 93)"><path d="M42.8 -12.3C49.8 7.7 46 32.8 30.4 44.9C14.8 57 -12.6 56 -29.8 43C-46.9 30 -54 5.1 -47.3 -14.4C-40.7 -33.9 -20.3 -48 -1.2 -47.6C17.9 -47.2 35.8 -32.3 42.8 -12.3Z" stroke="#f45d5d" fill="none" stroke-width="20"></path></g><g transform="translate(233 354)"><path d="M47.6 -15.1C54.7 6.4 48.6 32.5 31.7 45.2C14.8 57.8 -13.1 57.1 -31.1 43.7C-49.2 30.4 -57.5 4.5 -50.7 -16.6C-43.9 -37.6 -21.9 -53.9 -0.8 -53.6C20.2 -53.3 40.5 -36.5 47.6 -15.1Z" stroke="#f45d5d" fill="none" stroke-width="20"></path></g><g transform="translate(770 12)"><path d="M40.3 -12.6C46.1 4.7 40.4 26.2 26.2 36.7C11.9 47.2 -10.8 46.7 -27.4 35.2C-44.1 23.8 -54.6 1.3 -49 -15.7C-43.4 -32.6 -21.7 -44.2 -2.2 -43.4C17.3 -42.7 34.6 -29.8 40.3 -12.6Z" stroke="#f45d5d" fill="none" stroke-width="20"></path></g><g transform="translate(673 585)"><path d="M53.9 -16.8C60.1 1.6 48.7 26.4 29.9 39.7C11.1 53.1 -15.1 54.9 -33.4 42.4C-51.7 30 -62.1 3.2 -55.2 -16.1C-48.4 -35.4 -24.2 -47.3 -0.2 -47.2C23.9 -47.2 47.7 -35.2 53.9 -16.8Z" stroke="#f45d5d" fill="none" stroke-width="20"></path></g><g transform="translate(60 206)"><path d="M47.2 -16.7C53.1 2.9 44.3 25.9 27.3 38.5C10.2 51.1 -15.1 53.4 -30.5 42.2C-45.8 30.9 -51.3 6.3 -44.5 -14.5C-37.8 -35.2 -18.9 -52 0.9 -52.3C20.6 -52.6 41.3 -36.4 47.2 -16.7Z" stroke="#f45d5d" fill="none" stroke-width="20"></path></g><g transform="translate(204 521)"><path d="M45.1 -12.1C52.3 7.6 47.8 33.6 31.2 46.5C14.6 59.5 -14.2 59.3 -32 45.9C-49.8 32.6 -56.6 6 -49.5 -13.6C-42.3 -33.2 -21.1 -45.9 -1.1 -45.5C18.9 -45.2 37.9 -31.8 45.1 -12.1Z" stroke="#f45d5d" fill="none" stroke-width="20"></path></g><g transform="translate(844 597)"><path d="M45.2 -14.7C50.4 1.3 40.8 22.2 24.6 34C8.3 45.8 -14.6 48.7 -29.2 38.5C-43.8 28.2 -50.2 4.9 -44 -12.6C-37.8 -30.1 -18.9 -41.8 0.6 -41.9C20 -42.1 40 -30.8 45.2 -14.7Z" stroke="#f45d5d" fill="none" stroke-width="20"></path></g><g transform="translate(371 202)"><path d="M43.8 -13.8C49.3 2.8 41.3 24.2 25 36.6C8.7 48.9 -15.7 52.1 -31.2 41.2C-46.7 30.4 -53.3 5.5 -46.6 -12.8C-39.9 -31 -19.9 -42.6 -0.4 -42.4C19.1 -42.3 38.3 -30.5 43.8 -13.8Z" stroke="#f45d5d" fill="none" stroke-width="20"></path></g><g transform="translate(40 3)"><path d="M51.4 -15.8C57.5 1.9 46.9 26 29.2 38.5C11.4 51 -13.5 52 -29.9 40.3C-46.3 28.6 -54.2 4.2 -47.8 -14C-41.4 -32.2 -20.7 -44.3 1 -44.6C22.7 -44.9 45.4 -33.5 51.4 -15.8Z" stroke="#f45d5d" fill="none" stroke-width="20"></path></g><g transform="translate(891 436)"><path d="M50.2 -15.1C56.2 2.2 46.2 26 28.7 38.4C11.3 50.9 -13.6 52 -28.9 40.7C-44.1 29.4 -49.6 5.7 -43.2 -12.2C-36.8 -30.1 -18.4 -42.3 1.8 -42.9C22.1 -43.5 44.2 -32.5 50.2 -15.1Z" stroke="#f45d5d" fill="none" stroke-width="20"></path></g><g transform="translate(25 589)"><path d="M47.1 -16.7C53.2 3.4 44.8 26.8 28.2 38.9C11.6 51 -13.3 51.8 -29 40.3C-44.7 28.8 -51.2 5 -44.8 -15.5C-38.4 -36 -19.2 -53.2 0.6 -53.4C20.5 -53.6 41 -36.8 47.1 -16.7Z" stroke="#f45d5d" fill="none" stroke-width="20"></path></g><g transform="translate(389 586)"><path d="M41.7 -12.9C47.7 5.1 42 27.5 27.4 38.4C12.7 49.2 -10.9 48.4 -27.5 36.6C-44 24.9 -53.5 2.2 -47.7 -15.3C-42 -32.9 -21 -45.3 -1.6 -44.8C17.8 -44.2 35.6 -30.8 41.7 -12.9Z" stroke="#f45d5d" fill="none" stroke-width="20"></path></g><g transform="translate(693 411)"><path d="M42.8 -13.7C49.3 6.3 44.3 30.2 28.8 42C13.3 53.8 -12.6 53.5 -28.3 41.5C-44 29.5 -49.4 5.9 -42.9 -14C-36.5 -33.8 -18.3 -49.8 -0.1 -49.8C18.1 -49.8 36.2 -33.7 42.8 -13.7Z" stroke="#f45d5d" fill="none" stroke-width="20"></path></g><g transform="translate(336 27)"><path d="M44.1 -14.7C49.8 3.2 42 25.1 26 37.1C10 49 -14.2 51 -29.1 40.1C-43.9 29.3 -49.4 5.7 -43 -13.1C-36.6 -32 -18.3 -46.2 0.5 -46.4C19.2 -46.5 38.4 -32.6 44.1 -14.7Z" stroke="#f45d5d" fill="none" stroke-width="20"></path></g></g></svg>