<svg id="visual" viewBox="0 0 900 600" width="100%" height="100%" xmlns="http://www.w3.org/2000/svg" xmlns:xlink="http://www.w3.org/1999/xlink" version="1.1"><rect x="0" y="0" width="900" height="600" fill="#272A53"></rect><path d="M0 470L21.5 471.8C43 473.7 86 477.3 128.8 476.3C171.7 475.3 214.3 469.7 257.2 470.3C300 471 343 478 385.8 482.8C428.7 487.7 471.3 490.3 514.2 494.2C557 498 600 503 642.8 500.2C685.7 497.3 728.3 486.7 771.2 481.3C814 476 857 476 878.5 476L900 476L900 601L878.5 601C857 601 814 601 771.2 601C728.3 601 685.7 601 642.8 601C600 601 557 601 514.2 601C471.3 601 428.7 601 385.8 601C343 601 300 601 257.2 601C214.3 601 171.7 601 128.8 601C86 601 43 601 21.5 601L0 601Z" fill="#f45d5d"></path><path d="M0 495L21.5 493.5C43 492 86 489 128.8 486.2C171.7 483.3 214.3 480.7 257.2 480.8C300 481 343 484 385.8 485.5C428.7 487 471.3 487 514.2 493.5C557 500 600 513 642.8 517C685.7 521 728.3 516 771.2 510.2C814 504.3 857 497.7 878.5 494.3L900 491L900 601L878.5 601C857 601 814 601 771.2 601C728.3 601 685.7 601 642.8 601C600 601 557 601 514.2 601C471.3 601 428.7 601 385.8 601C343 601 300 601 257.2 601C214.3 601 171.7 601 128.8 601C86 601 43 601 21.5 601L0 601Z" fill="#ea4e60"></path><path d="M0 522L21.5 526C43 530 86 538 128.8 538.8C171.7 539.7 214.3 533.3 257.2 528.7C300 524 343 521 385.8 517.8C428.7 514.7 471.3 511.3 514.2 508.7C557 506 600 504 642.8 504C685.7 504 728.3 506 771.2 512.7C814 519.3 857 530.7 878.5 536.3L900 542L900 601L878.5 601C857 601 814 601 771.2 601C728.3 601 685.7 601 642.8 601C600 601 557 601 514.2 601C471.3 601 428.7 601 385.8 601C343 601 300 601 257.2 601C214.3 601 171.7 601 128.8 601C86 601 43 601 21.5 601L0 601Z" fill="#df4063"></path><path d="M0 533L21.5 532.8C43 532.7 86 532.3 128.8 534.8C171.7 537.3 214.3 542.7 257.2 546C300 549.3 343 550.7 385.8 549.3C428.7 548 471.3 544 514.2 541.3C557 538.7 600 537.3 642.8 536.2C685.7 535 728.3 534 771.2 533.3C814 532.7 857 532.3 878.5 532.2L900 532L900 601L878.5 601C857 601 814 601 771.2 601C728.3 601 685.7 601 642.8 601C600 601 557 601 514.2 601C471.3 601 428.7 601 385.8 601C343 601 300 601 257.2 601C214.3 601 171.7 601 128.8 601C86 601 43 601 21.5 601L0 601Z" fill="#d33266"></path><path d="M0 554L21.5 554.3C43 554.7 86 555.3 128.8 558.3C171.7 561.3 214.3 566.7 257.2 569.3C300 572 343 572 385.8 570.5C428.7 569 471.3 566 514.2 563.7C557 561.3 600 559.7 642.8 562.3C685.7 565 728.3 572 771.2 572.2C814 572.3 857 565.7 878.5 562.3L900 559L900 601L878.5 601C857 601 814 601 771.2 601C728.3 601 685.7 601 642.8 601C600 601 557 601 514.2 601C471.3 601 428.7 601 385.8 601C343 601 300 601 257.2 601C214.3 601 171.7 601 128.8 601C86 601 43 601 21.5 601L0 601Z" fill="#c62368"></path></svg>